<svg id="Layer_1" data-name="Layer 1" xmlns="http://www.w3.org/2000/svg" viewBox="0 0 334.83 336.47"><defs><style>.cls-1{fill:none;}.cls-2{fill:%231d4a6e;}</style></defs><polygon class="cls-1" points="0 83.74 0 83.74 0 83.74 0 83.74"/><path class="cls-2" d="M167.4,83.74Z"/><path class="cls-2" d="M83.7,0h0V0c0,.54,0,1.08,0,1.62a83.7,83.7,0,0,0,83.68,82.08h0v0A83.7,83.7,0,0,0,83.7,0Z"/><path class="cls-2" d="M83.68,165.82c0,.53,0,1.05,0,1.58h0a83.69,83.69,0,0,0,83.7-83.66h0A83.7,83.7,0,0,0,83.68,165.82Z"/><path class="cls-2" d="M83.68,1.66c0-.54,0-1.08,0-1.62V0A83.7,83.7,0,0,0,0,83.7v0A83.7,83.7,0,0,0,83.68,1.66Z"/><path class="cls-2" d="M83.68,1.66c0-.54,0-1.08,0-1.62V0h0V0C83.66.58,83.67,1.12,83.68,1.66Z"/><path class="cls-2" d="M0,83.74A83.7,83.7,0,0,0,83.66,167.4c0-.53,0-1.05,0-1.58A83.7,83.7,0,0,0,0,83.74Z"/><path class="cls-2" d="M83.66,167.4h0c0-.53,0-1.05,0-1.58C83.67,166.35,83.66,166.87,83.66,167.4Z"/><polygon class="cls-1" points="167.4 83.74 167.4 83.74 167.4 83.74 167.4 83.74"/><path class="cls-2" d="M334.81,83.74Z"/><path class="cls-2" d="M251.11,0h0V0q0,.81,0,1.62a83.71,83.71,0,0,0,83.69,82.08h0v0A83.7,83.7,0,0,0,251.11,0Z"/><path class="cls-2" d="M251.08,165.82c0,.53,0,1.05,0,1.58h0a83.71,83.71,0,0,0,83.7-83.66h0A83.71,83.71,0,0,0,251.08,165.82Z"/><path class="cls-2" d="M251.08,1.66c0-.54,0-1.08,0-1.62V0A83.71,83.71,0,0,0,167.4,83.7v0A83.69,83.69,0,0,0,251.08,1.66Z"/><path class="cls-2" d="M251.08,1.66q0-.81,0-1.62V0h0V0C251.06.58,251.07,1.12,251.08,1.66Z"/><path class="cls-2" d="M167.4,83.74a83.7,83.7,0,0,0,83.66,83.66c0-.53,0-1.05,0-1.58A83.69,83.69,0,0,0,167.4,83.74Z"/><path class="cls-2" d="M251.06,167.4h0c0-.53,0-1.05,0-1.58C251.07,166.35,251.07,166.87,251.06,167.4Z"/><polygon class="cls-1" points="334.81 83.74 334.81 83.74 334.81 83.74 334.81 83.74"/><path class="cls-2" d="M334.81,83.7v0"/><polygon class="cls-1" points="0 251.15 0 251.15 0 251.15 0 251.15"/><path class="cls-2" d="M167.4,251.15Z"/><path class="cls-2" d="M83.7,167.4h0v0c0,.55,0,1.09,0,1.63a83.7,83.7,0,0,0,83.68,82.08h0v0A83.7,83.7,0,0,0,83.7,167.4Z"/><path class="cls-2" d="M83.68,333.23c0,.52,0,1,0,1.58h0a83.69,83.69,0,0,0,83.7-83.66h0A83.7,83.7,0,0,0,83.68,333.23Z"/><path class="cls-2" d="M83.68,169.07c0-.54,0-1.08,0-1.63v0A83.71,83.71,0,0,0,0,251.11v0A83.7,83.7,0,0,0,83.68,169.07Z"/><path class="cls-2" d="M83.68,169.07c0-.54,0-1.08,0-1.63v0h0v0C83.66,168,83.67,168.53,83.68,169.07Z"/><path class="cls-2" d="M0,251.15a83.71,83.71,0,0,0,83.66,83.66c0-.53,0-1.06,0-1.58A83.7,83.7,0,0,0,0,251.15Z"/><path class="cls-2" d="M83.66,334.81h0c0-.53,0-1.06,0-1.58C83.67,333.75,83.66,334.28,83.66,334.81Z"/><polygon class="cls-1" points="167.4 251.15 167.4 251.15 167.4 251.15 167.4 251.15"/><path class="cls-2" d="M334.81,251.15Z"/><path class="cls-2" d="M251.11,167.4h0v0c0,.55,0,1.09,0,1.63a83.71,83.71,0,0,0,83.69,82.08h0v0A83.71,83.71,0,0,0,251.11,167.4Z"/><path class="cls-2" d="M251.08,333.23c0,.52,0,1,0,1.58h0a83.71,83.71,0,0,0,83.7-83.66h0A83.71,83.71,0,0,0,251.08,333.23Z"/><path class="cls-2" d="M251.08,169.07c0-.54,0-1.08,0-1.63v0a83.71,83.71,0,0,0-83.66,83.71v0A83.69,83.69,0,0,0,251.08,169.07Z"/><path class="cls-2" d="M251.08,169.07c0-.54,0-1.08,0-1.63v0h0v0C251.06,168,251.07,168.53,251.08,169.07Z"/><path class="cls-2" d="M167.4,251.15a83.72,83.72,0,0,0,83.66,83.66c0-.53,0-1.06,0-1.58A83.69,83.69,0,0,0,167.4,251.15Z"/><path class="cls-2" d="M251.06,334.81h0c0-.53,0-1.06,0-1.58C251.07,333.75,251.07,334.28,251.06,334.81Z"/><polygon class="cls-1" points="334.81 251.15 334.81 251.15 334.81 251.15 334.81 251.15"/><path class="cls-2" d="M334.81,251.11v0"/><path class="cls-2" d="M83.68,336.47c0-.54,0-1.08,0-1.62v0h0v0C83.66,335.39,83.67,335.93,83.68,336.47Z"/><path class="cls-2" d="M251.08,336.47q0-.81,0-1.62v0h0v0C251.06,335.39,251.07,335.93,251.08,336.47Z"/></svg>