<?xml version="1.0" encoding="utf-8"?>
<!-- Generator: Adobe Illustrator 25.4.1, SVG Export Plug-In . SVG Version: 6.00 Build 0)  -->
<svg version="1.1" id="Layer_1" xmlns="http://www.w3.org/2000/svg" xmlns:xlink="http://www.w3.org/1999/xlink" x="0px" y="0px"
	 viewBox="0 0 474.9 328.4" style="enable-background:new 0 0 474.9 328.4;" xml:space="preserve">
<style type="text/css">
	.st0{fill:#FFFFFF;}
</style>
<g>
	<path class="st0" d="M103.1,138.1c4.9,1.7,9.6,3.6,14.7,4.7c6.8,1.5,13.6,2.5,20.9,1.7c-5.8-2.9-11.7-5.1-14.7-11.6
		c13.1,4.3,26.1,5.3,39.4,3.6c-4.9-2.4-9.8-4.8-14.6-7.2c0-0.1,0-0.2,0-0.3c2.3,0,4.6,0,7,0c19.8,0.2,39-3.6,57.7-10
		c9.8-3.3,19.7-5.9,30-6.9c7.7-0.7,15.3-0.6,23,0c2.8,0.2,5.6,0.7,8.4,0.8c1.4,0.1,1.7,0.6,1.8,1.9c2.2,24.7,11.7,46.4,26.3,66.2
		c4.2,5.7,9.2,10.7,14.9,14.9c1.3,1,2.6,1.5,4.2,1.1c0.1,0,0.3,0.1,0.4,0.1c-0.1-0.1-0.1-0.2-0.2-0.3c-3.7-5.3-7.5-10.5-10.9-16.1
		c-9.5-15.8-16.8-32.4-20.4-50.6c-1.3-6.7-2-13.6-2.1-20.4c0-1.2,0.4-1.8,1.4-2.3c9.5-4.8,19.3-8.6,29.8-10.2c9-1.4,24.7,0,31.4,3
		c-6.8,12.8-8.3,26.8-8.7,40.9c-0.6,21.2,1.7,42.2,5.3,63.1c0.2,1.4,0.2,2.1-1.7,2c-4.1-0.3-8.2,0.1-12.2-1.1
		c-0.5-0.2-1,0.1-1.4,0.4c-7,5.2-14.2,10.2-20.6,16.3c-1.8,1.7-2.5,3.6-2.5,6.1c0.1,5.6,1.6,10.9,3.1,16.3c0.7,2.7,1.5,5.3,2.3,8
		c0.2,0.5,0.4,1.2-0.1,1.6c-0.7,0.5-1.1-0.2-1.6-0.6c-1-0.7-1.5-1.9-2-2.9c-3.6-7.3-6.6-14.8-7.2-23c-0.3-3.7,0.9-6.8,3.1-9.6
		c4.4-5.6,10.1-9.7,15.9-13.7c1.3-0.9,2.6-1.7,3.9-2.6c0.3-0.2,0.8-0.3,0.5-0.8c-0.3-0.4-0.6-0.6-1.1-0.2c-1,0.7-2,1.4-2.9,2.1
		c-9,6.5-18,12.9-26.5,20.1c-3.5,3-4.2,6.4-3.6,10.6c0.9,6.4,2.8,12.6,4.6,18.8c0.3,0.9,0.5,1.8,0.6,2.8c0.1,0.4,0.1,0.8-0.3,1
		c-0.4,0.2-0.7,0-1-0.3c-0.7-0.6-1.3-1.2-1.7-2c-3.6-7-6.4-14.1-7.7-21.9c-0.9-5.5,0.7-9.9,4.3-13.8c4.7-5.1,10.3-9.2,16.1-13
		c0.4-0.3,0.9-0.4,1.2-1c-0.2-0.1-0.4-0.2-0.5-0.1c-4,1.8-8.3,3.1-11.9,6c-4.3,3.5-8.8,6.7-12.8,10.6c-1.7,1.6-2.4,3.5-2.4,5.7
		c0.1,5.8,1.7,11.4,3.3,17c0.7,2.4,1.4,4.8,2,7.3c0.1,0.6,0.6,1.3-0.1,1.7c-0.7,0.4-1.2-0.4-1.7-0.8c-0.3-0.2-0.6-0.5-0.7-0.8
		c-4.2-7.9-7.5-16-8.3-25c-0.4-4.2,1.4-7.5,4-10.6c0.4-0.5,0.8-1.1,1.2-1.6c0.1-0.1,0.1-0.1,0.2-0.2c-0.1,0-0.1,0-0.2,0
		c0,0.1,0,0.2,0,0.2c-2-0.3-3.8,0.4-5.7,0.8c-11.4,1.8-22.4,0.6-33.3-2.8c-2.5-0.8-5-1.3-7.5-2c-0.9-0.2-1.5-0.3-1.6,0.9
		c-1,9-2,18-2.2,27.1c-0.1,3.6,1.7,6,4.4,8c4.6,3.4,9.6,5.9,14.7,8.4c1.9,0.9,3.7,1.9,5.5,2.8c0.4,0.2,1,0.5,0.8,1.1
		c-0.1,0.4-0.6,0.6-1.1,0.6c-0.7,0-1.3,0.2-2.1,0c-8.3-2.1-16.3-5.2-23.3-10.2c-4.2-3-5.4-7.2-5.8-11.9c-0.7-7.7,0.4-15.2,1.7-22.7
		c0.3-1.5,0.6-3.1,0.9-4.6c0.2-1,0-1.5-1.1-1.6c-1.9-0.2-3.8-0.6-5.8-1c-1-0.2-1.3,0.1-1.4,1.1c-1.1,10-2.2,20-2.7,30.1
		c-0.2,4.8,1.3,8.2,5.3,10.8c4.6,3.1,9.4,5.6,14.3,8c1.2,0.6,2.4,1.1,3.5,1.7c0.9,0.5,2.6,0.7,2.2,1.9c-0.4,1.2-2.1,0.9-3.2,0.6
		c-8-2.1-15.7-5-22.5-9.7c-4-2.8-5.8-6.6-6.3-11.3c-0.8-7.5,0.1-14.9,1.4-22.3c0.5-3.2,1.2-6.4,1.9-9.6c0.3-1.3-0.1-1.6-1.3-1.3
		c-25.7,5.6-46.3,18.2-58.4,42.7c-6.1,12.3-10.1,25.2-12.7,38.5c-0.5,2.4-1.8,4-3.6,5.3c-0.9,0.6-1.9,1.2-2.9,0.3
		c-1-0.8-1.6-1.9-1.3-3.1c4.3-19.1,8.8-38.1,17.3-55.8c1.7-3.5,3.7-6.7,6.4-9.8c-3.2-0.4-5.8,0.6-8.3,1.8c-7.1,3.4-12.3,9.1-17,15.2
		c-5,6.5-9,13.6-12.7,20.9c-1,2-2.9,2.5-4.8,2.8c-1,0.2-1.4-0.6-1.5-1.5c0-1.3,0.4-2.5,0.9-3.6c4.3-10.7,9.5-21,16.5-30.2
		c2.2-2.9,4.9-5.3,8.3-7c5-2.5,10-5.3,14.8-8.4c-2.8,0.5-5.7,1-8.5,1.6c-6.3,1.3-12.6,2.8-18.6,5.3c-2.7,1.1-4.6,2.9-6,5.5
		c-3.9,7.1-6.7,14.6-9.5,22.1c-5.3,14.4-9.9,29-14.3,43.7c-0.3,0.9-0.1,2.1-1.6,2.1c-1.5,0-2.4-0.8-2.8-2.1c-0.7-2-0.6-4.1-0.3-6.2
		c2.4-13.8,6.3-27.3,10.5-40.6c2.4-7.5,5-14.9,8.4-22c1.9-4,4.6-7,8.6-9.2c5.3-2.8,10.5-5.6,15.8-8.4c0.2-0.1,0.7,0,0.5-0.4
		c-0.1-0.3-0.5,0-0.8,0.1c-11.1,3.3-22,6.9-32.8,11.3c-5.4,2.2-8.6,6.6-12,10.8c-5.5,6.8-10.4,14.1-16.2,20.7
		c-0.8,0.9-1.7,1.7-2.6,2.5c-0.3,0.3-0.8,0.5-1.2,0.2c-0.3-0.2-0.3-0.7-0.3-1c0.2-1.3,0.6-2.4,1.1-3.6c4.6-10.3,10.3-19.8,16.9-28.9
		c1.6-2.2,3.7-3.5,6-4.7c11.9-5.8,24.2-10.9,36.4-16.1c0.3-0.1,0.7-0.3,1-0.9c-2,0-4,0-6,0c-15.7,0-31.4,0.1-47,0.6
		c-11.9,0.4-23.9,0.9-35.8,2.2c-4.7,0.5-9.5,1.2-14.2,2c14.8-6,29.6-12,44.4-18c0-0.2,0-0.3-0.1-0.5c-5.5-0.9-10.9-1.9-16.4-2.8
		c0-0.1,0-0.1,0-0.2c14.1-2.8,28.1-5.7,41.7-8.4c-4,0-8.5,0-13,0c-17.2,0.2-34.3-0.5-51.1-5c-6-1.6-11.7-3.7-17.1-6.8
		c-15.6-9-19.2-23.5-13.1-39c3.5-8.9,9.8-15.6,17.1-21.4C31.7,89.2,45.2,83,59.2,78c19.6-7,39.8-11.6,60.2-15.1
		c13.1-2.3,26.3-4.3,39.6-5.4c11-0.9,21.2-4.6,31.6-7.5c36.4-9.9,73-19.3,109.7-28c26.8-6.3,53.7-12.2,80.7-17.2
		C391.5,2.9,401.9,1,412.5,0c2.9-0.3,5.6,1.4,7.7,3.4c1.1,1.1,0,1.9-1,2.2c-1.9,0.5-3.8,0.9-5.7,1.3c-23.5,4.5-46.8,9.3-70.2,14.2
		c-24.5,5.2-49,10.5-73.5,16c-23.1,5.2-46.1,10.7-69.1,16.6c1.1,0,2.2,0.1,3.3,0c11.1-0.7,22.2-1.2,33.4-1.5
		c19.6-0.6,39.3-0.8,58.9-0.6c14.1,0.1,28.2,0.4,42.3,0.9c15.3,0.5,30.5,1.2,45.8,1.9c1.8,0.1,3.6,0.3,5.5,0.2
		c1.5,0,1.6,0.6,1.2,1.8c-0.5,1.4-1.5,2.3-2.7,3c-2.2,1.3-4.7,1.9-7.2,1.8c-14.4-0.5-28.8-1.1-43.2-1.6c-7.9-0.3-15.9-0.4-23.8-0.6
		c-18-0.4-36-0.7-54-0.5c-18.5,0.2-37,0.6-55.5,1.5c-12.6,0.6-25.2,1.5-37.8,2.7c-5.1,0.5-10,2.3-15,3.7
		c-25.5,7-50.9,14.4-75.6,23.8C66,94,55.9,98.2,46.7,104.2c-2.8,1.8-5.2,4-7.4,6.4c-6.5,7.3-7.3,15.5-2.4,23.9
		c3.9,6.6,9.5,11.5,15.5,16c5.5,4.1,11.4,7.6,17.5,10.8c1,0.5,2,0.8,3.1,0.7c4.2-0.1,8.3-0.1,12.9-0.7c-9.1-5.3-17.8-10.4-26.6-15.4
		c17.3,1.7,34.5,4.2,52.4,2.8c-2.8-3.3-5.3-6.3-7.8-9.2C103.6,139.1,103.1,138.8,103.1,138.1L103.1,138.1z M130.8,67.3
		c0-0.1,0-0.2-0.1-0.3c-1.6,0.3-3.2,0.5-4.8,0.8C105.1,71.3,84.5,76,64.5,83c-12.7,4.4-25,9.7-35.6,18.2c-6.4,5.1-12.3,10.8-16,18.3
		c-4.8,9.7-3.3,19.6,4.1,27.1c8.6,8.8,19.8,11.8,31.6,13.6c-0.5-0.7-1.2-1.3-1.8-1.8c-5.6-4.8-10.7-10.1-14.7-16.4
		c-3.1-4.9-5.4-10.1-5.6-16c-0.3-8.2,3.5-14.6,9.3-20.1c5.4-5.1,11.7-8.7,18.4-11.7c18.9-8.6,38.6-14.8,58.2-21.2
		C118.5,71.1,124.6,69.2,130.8,67.3z M112,171.8c3.4,0,6.1-2.7,6.1-6.1c0-3.3-2.8-5.9-6.1-5.9c-3.3,0-6,2.8-6,6
		C105.9,169.1,108.6,171.8,112,171.8z"/>
	<path class="st0" d="M366.6,211.4c3.4-4.9,6.7-9.9,10.1-14.7c8.8-12.5,18.5-24.4,29.8-34.8c8.5-7.8,17.7-14.7,28.5-19.1
		c1.7-0.7,3.2-0.7,5,0c15.8,6.8,24.4,19,26.7,35.8c1,7.3,0.6,14.6-0.5,21.8c-0.2,1.4-0.6,1.9-2.3,1.7c-9.8-1.3-19.6-0.7-29.3,1.1
		c-20.6,3.7-39.6,11.6-57.4,22.4c-1.4,0.8-1.8,0.6-2.6-0.7c-2.6-4.9-5.8-9.4-10.2-12.9c-4-3.3-8.7-5-13.8-5.4
		c-1.2-0.1-1.6-0.5-1.7-1.6c-0.6-9-0.8-18-0.3-27c1.4-25.8,6.9-50.7,16.9-74.6c0.5-1.2,1.3-1.7,2.5-1.9c9.2-1.9,18.3-1,27.1,2.2
		c14.3,5.2,25.8,13.9,33.9,27c0.8,1.3,0.9,1.9-0.7,2.5c-9.3,3.8-17,10-23.8,17.2c-16.6,17.6-28.1,38.4-37.9,60.2
		c-0.1,0.2-0.1,0.5-0.2,0.7c-0.3,0.1-0.4,0.5-0.2,0.6C366.6,212,366.5,211.6,366.6,211.4z"/>
	<path class="st0" d="M358.4,327.5c-16.3-0.2-32-2.9-46.8-9.9c-8-3.8-6.3-2.3-7.6-10.3c-1.1-6.6-0.6-13.3,1-19.8
		c0.2-1,0.7-1.4,1.6-1.5c9.8-1.3,19.4-3.5,28.9-5.9c8.6-2.2,17-5,24.8-9.2c1-0.5,1.6-0.1,2.4,0.3c16.4,10,27.4,24.3,33.7,42.3
		c1.8,5,1.7,5.1-3.3,7.3C382,325.7,370.4,327.6,358.4,327.5z"/>
	<path class="st0" d="M169.8,268.4c5.5,0.9,10.7,1.7,15.8,2.5c13.6,2.1,27.2,4.2,40.8,6.2c11.3,1.7,22.6,3.3,34,4.8
		c12,1.6,24.1,3.1,36.2,3.9c1.3,0.1,1.7,0.4,1.5,1.7c-1.1,7.7-1.6,15.4-0.4,23.1c0.2,1.2-0.5,1.4-1.3,1.7
		c-9.3,3.4-18.8,6.2-28.5,8.3c-8.8,1.9-17.7,3.2-26.7,3.3c-9.9,0.1-19.7-1.1-28.6-6c-1.2-0.6-2.2-1.4-3.3-2.1
		c-0.7-0.5-1.4-1.1-2.2-1.7c0.7-0.6,1.5-0.4,2.2-0.4c10,0,19.9-0.5,29.6-2.5c4.1-0.8,8.2-2,11.9-4.1c1.6-0.9,3.1-1.9,4.1-3.8
		c-3.6,0.6-6.9,1.1-10.3,1.3c-17.8,1.2-34.9-1.3-50.5-10.7c-10-6-17.8-14.3-23.8-24.3C170.2,269.3,170.1,269,169.8,268.4z"/>
	<path class="st0" d="M376,227.4c7.5-2.8,15-5.2,22.6-7.3c11.5-3.2,23.2-5.6,35.2-6.3c11.4-0.7,22.8-0.3,33.6,4
		c1.3,0.5,2.1,1.2,2.6,2.5c5.8,13.3,6.8,26.7,0.5,40.1c-1.8,3.8-4.5,6.8-8,9.1c-0.9,0.6-1.6,0.6-2.4-0.2
		c-13.7-11.9-29.5-19.2-47.4-22c-10.1-1.5-20.2-1.5-30.2,0.2c-1.1,0.2-1.8,0.3-1.7-1.4c0.6-6.1-1.5-11.6-4-17
		C376.6,228.6,376.3,228.1,376,227.4z"/>
	<path class="st0" d="M362.7,269.5c4.4-2.6,8.4-5.3,11.6-9c2.6-2.9,4.7-6.2,5.7-10.1c0.3-1,0.5-1.3,1.6-1.3
		c27.4,1.1,51.7,9.8,71.2,29.8c1.3,1.3,1.5,2.4,0.6,4.1c-9,16.8-22.7,27.2-41.5,30.7c-3.1,0.6-3.1,0.5-4.2-2.4
		c-6.5-16.2-17.7-28.2-33-36.5C370.9,272.8,367,271.2,362.7,269.5z"/>
	<path class="st0" d="M103.1,138.2c-0.1-0.1-0.2-0.1-0.4-0.2c0,0,0.1-0.1,0.1-0.1C102.9,137.9,103,138,103.1,138.2
		C103.1,138.1,103.1,138.2,103.1,138.2z"/>
</g>
</svg>
